<svg xmlns="http://www.w3.org/2000/svg" width="186.33000000000004" height="35" viewBox="0 0 186.33000000000004 35"><rect class="svg__rect" x="0" y="0" width="122.32000000000001" height="35" fill="#92EE4F"/><rect class="svg__rect" x="120.32000000000001" y="0" width="66.01000000000002" height="35" fill="#389AD5"/><path class="svg__text" d="M19.80 22L14.22 22L14.22 13.47L19.75 13.47L19.75 14.66L15.70 14.66L15.70 17.02L19.20 17.02L19.20 18.19L15.70 18.19L15.70 20.82L19.80 20.82L19.80 22ZM25.47 22L23.99 22L23.99 13.47L25.47 13.47L25.47 17.02L29.29 17.02L29.29 13.47L30.76 13.47L30.76 22L29.29 22L29.29 18.21L25.47 18.21L25.47 22ZM36.99 22L35.50 22L35.50 13.47L38.50 13.47Q39.98 13.47 40.78 14.13Q41.59 14.79 41.59 16.05L41.59 16.05Q41.59 16.90 41.17 17.48Q40.76 18.06 40.02 18.37L40.02 18.37L41.94 21.92L41.94 22L40.35 22L38.64 18.71L36.99 18.71L36.99 22ZM36.99 14.66L36.99 17.52L38.51 17.52Q39.26 17.52 39.68 17.15Q40.10 16.77 40.10 16.11L40.10 16.11Q40.10 15.43 39.71 15.05Q39.32 14.68 38.55 14.66L38.55 14.66L36.99 14.66ZM48.61 18.95L45.53 18.95L45.53 17.80L48.61 17.80L48.61 18.95ZM52.47 19.42L52.47 19.42L53.96 19.42Q53.96 20.15 54.44 20.55Q54.92 20.95 55.81 20.95L55.81 20.95Q56.59 20.95 56.98 20.63Q57.37 20.32 57.37 19.80L57.37 19.80Q57.37 19.24 56.97 18.94Q56.57 18.63 55.54 18.32Q54.51 18.01 53.90 17.63L53.90 17.63Q52.74 16.90 52.74 15.72L52.74 15.72Q52.74 14.69 53.58 14.02Q54.42 13.35 55.76 13.35L55.76 13.35Q56.65 13.35 57.35 13.68Q58.05 14.01 58.44 14.61Q58.84 15.22 58.84 15.96L58.84 15.96L57.37 15.96Q57.37 15.29 56.95 14.91Q56.53 14.54 55.75 14.54L55.75 14.54Q55.02 14.54 54.62 14.85Q54.22 15.16 54.22 15.71L54.22 15.71Q54.22 16.18 54.65 16.50Q55.09 16.81 56.08 17.10Q57.08 17.40 57.68 17.78Q58.29 18.16 58.57 18.65Q58.85 19.13 58.85 19.79L58.85 19.79Q58.85 20.86 58.03 21.49Q57.21 22.12 55.81 22.12L55.81 22.12Q54.89 22.12 54.11 21.77Q53.33 21.43 52.90 20.83Q52.47 20.22 52.47 19.42ZM62.87 18.00L62.87 18.00L62.87 17.52Q62.87 16.28 63.31 15.32Q63.75 14.37 64.56 13.86Q65.36 13.35 66.41 13.35Q67.45 13.35 68.26 13.85Q69.06 14.35 69.50 15.29Q69.94 16.23 69.95 17.48L69.95 17.48L69.95 17.96Q69.95 19.21 69.51 20.16Q69.08 21.10 68.27 21.61Q67.47 22.12 66.42 22.12L66.42 22.12Q65.38 22.12 64.57 21.61Q63.76 21.10 63.32 20.17Q62.87 19.23 62.87 18.00ZM64.35 17.46L64.35 17.96Q64.35 19.36 64.90 20.13Q65.45 20.90 66.42 20.90L66.42 20.90Q67.40 20.90 67.93 20.15Q68.46 19.40 68.46 17.96L68.46 17.96L68.46 17.51Q68.46 16.09 67.93 15.34Q67.39 14.58 66.41 14.58L66.41 14.58Q65.45 14.58 64.90 15.33Q64.36 16.09 64.35 17.46L64.35 17.46ZM75.89 22L74.41 22L74.41 13.47L77.67 13.47Q79.10 13.47 79.94 14.21Q80.79 14.96 80.79 16.18L80.79 16.18Q80.79 17.44 79.96 18.13Q79.14 18.83 77.66 18.83L77.66 18.83L75.89 18.83L75.89 22ZM75.89 14.66L75.89 17.64L77.67 17.64Q78.47 17.64 78.88 17.27Q79.30 16.90 79.30 16.19L79.30 16.19Q79.30 15.50 78.88 15.09Q78.45 14.68 77.72 14.66L77.72 14.66L75.89 14.66ZM86.55 22L85.07 22L85.07 13.47L86.55 13.47L86.55 17.02L90.37 17.02L90.37 13.47L91.84 13.47L91.84 22L90.37 22L90.37 18.21L86.55 18.21L86.55 22ZM98.15 22L96.67 22L96.67 13.47L98.15 13.47L98.15 22ZM108.54 22L102.96 22L102.96 13.47L108.49 13.47L108.49 14.66L104.44 14.66L104.44 17.02L107.94 17.02L107.94 18.19L104.44 18.19L104.44 20.82L108.54 20.82L108.54 22Z" fill="#3C9AD5"/><path class="svg__text" d="M135.36 16.17L133.60 15.19Q134.09 14.37 134.98 13.90Q135.87 13.43 137.08 13.43L137.08 13.43Q138.04 13.43 138.78 13.74Q139.51 14.05 139.93 14.64Q140.34 15.22 140.34 15.99L140.34 15.99Q140.34 16.67 140.05 17.28Q139.75 17.89 138.91 18.65L138.91 18.65L137.33 20.11L140.57 20.11L140.57 22L134.03 22L134.03 20.51L137.17 17.57Q137.63 17.14 137.79 16.83Q137.94 16.53 137.94 16.22L137.94 16.22Q137.94 15.81 137.67 15.58Q137.39 15.35 136.86 15.35L136.86 15.35Q136.39 15.35 136.00 15.56Q135.62 15.77 135.36 16.17L135.36 16.17ZM144.75 17.80L144.75 17.80Q144.75 16.45 145.22 15.46Q145.69 14.46 146.53 13.95Q147.38 13.43 148.45 13.43L148.45 13.43Q149.52 13.43 150.36 13.95Q151.20 14.46 151.68 15.46Q152.15 16.45 152.15 17.80L152.15 17.80Q152.15 19.15 151.68 20.15Q151.20 21.14 150.36 21.65Q149.53 22.17 148.45 22.17L148.45 22.17Q147.38 22.17 146.53 21.65Q145.69 21.14 145.22 20.15Q144.75 19.16 144.75 17.80ZM147.13 17.80L147.13 17.80Q147.13 19.06 147.49 19.64Q147.84 20.22 148.45 20.22L148.45 20.22Q149.06 20.22 149.41 19.64Q149.77 19.06 149.77 17.80L149.77 17.80Q149.77 16.54 149.41 15.96Q149.06 15.38 148.45 15.38L148.45 15.38Q147.84 15.38 147.49 15.96Q147.13 16.54 147.13 17.80ZM157.73 16.17L155.97 15.19Q156.46 14.37 157.35 13.90Q158.24 13.43 159.45 13.43L159.45 13.43Q160.41 13.43 161.15 13.74Q161.88 14.05 162.30 14.64Q162.71 15.22 162.71 15.99L162.71 15.99Q162.71 16.67 162.42 17.28Q162.12 17.89 161.29 18.65L161.29 18.65L159.70 20.11L162.94 20.11L162.94 22L156.40 22L156.40 20.51L159.54 17.57Q160.00 17.14 160.16 16.83Q160.31 16.53 160.31 16.22L160.31 16.22Q160.31 15.81 160.04 15.58Q159.76 15.35 159.23 15.35L159.23 15.35Q158.77 15.35 158.38 15.56Q157.99 15.77 157.73 16.17L157.73 16.17ZM168.40 16.17L166.64 15.19Q167.13 14.37 168.02 13.90Q168.91 13.43 170.12 13.43L170.12 13.43Q171.08 13.43 171.82 13.74Q172.55 14.05 172.97 14.64Q173.38 15.22 173.38 15.99L173.38 15.99Q173.38 16.67 173.09 17.28Q172.79 17.89 171.96 18.65L171.96 18.65L170.37 20.11L173.61 20.11L173.61 22L167.07 22L167.07 20.51L170.21 17.57Q170.67 17.14 170.83 16.83Q170.98 16.53 170.98 16.22L170.98 16.22Q170.98 15.81 170.71 15.58Q170.43 15.35 169.90 15.35L169.90 15.35Q169.44 15.35 169.05 15.56Q168.66 15.77 168.40 16.17L168.40 16.17Z" fill="#C1D72F" x="133.32"/></svg>